# xmcd CD database file
#
# Track frame offsets:
#	150
#	12832
#	26547
#	39715
#	52857
#	67207
#	80687
#	95505
#	108804
#	121157
#	132000
#	145910
#	157459
#	170922
#	184580
#	199735
#	213550
#	226527
#	248177
#
# Disc length: 3524 seconds
#
# Revision: 0
# Processed by: cddbd v1.4PL0 Copyright (c) Steve Scherf et al.
# Submitted via: CDex 1.50Beta7
#
DISCID=090dc213
DTITLE=Various Artist - The ultimate Anthology of Blues and Jazz, Volume 3, Disc 1
DYEAR=1900
DGENRE=Blues
TTITLE0=King Oliver's Creole Jazz Band - Sweet loving' man
TTITLE1=Clarence Williams' Blue Five - Wild cat Blues
TTITLE2=Jelly Roll Morton's RedHot Peppers - Cannon Ball Blues
TTITLE3=Jelly Roll Morton's RedHot Peppers - Kansas City Stomps
TTITLE4=New Orleans Wanderers/Perdido Street Blues
TTITLE5=Louis Armstrong's Hot Seven/Potato Head Blues
TTITLE6=Louis Armstrong's Hot Seven/Wild man Blues
TTITLE7=Sidney Bechet and His New Orleans Feetwarmers/Maple Leaf Rag
TTITLE8=Original Dixieland Jass Band/Clarinet Marmalade
TTITLE9=New Orleans Rhythm Kings/Tiger Rag
TTITLE10=The Halfway House Orchestra/New Orleans Shuffle
TTITLE11=Original Tuxedo Jazz Orchestra/Original Tuxedo Rag
TTITLE12=Louis Dumaine's Jazzola Eight/To-Wa-Bac-A-Wa
TTITLE13=Ann Cook/Mama Cookie
TTITLE14=Sam Morgan's Jazz Band/Over in the Gloryland
TTITLE15=Frenchy's String Band/Texas And Pacific BLues
TTITLE16=Jones and Collins Astoria Hot Eight/Duet Stomp
TTITLE17=Sidney Bechet/Jackass Blues
TTITLE18=Bunk's Brass Band/Just a little while to stay here
EXTD=
EXTT0=
EXTT1=
EXTT2=
EXTT3=
EXTT4=
EXTT5=
EXTT6=
EXTT7=
EXTT8=
EXTT9=
EXTT10=
EXTT11=
EXTT12=
EXTT13=
EXTT14=
EXTT15=
EXTT16=
EXTT17=
EXTT18=
PLAYORDER=
